#!OML:ASF I:\Random Stuff\random\construction\7_22_03\Session 2\subj1.ASF
:FULLY-SPECIFIED
:DEGREES
1119
root -10.6667 17.6445 -5.84209 -375.246 76.2417 -394.202
lowerback 19.0118 -0.485428 -2.07119
upperback 8.34478 -0.597326 -2.85577
thorax -1.66913 -0.0938618 -1.73427
lowerneck -16.2606 1.48059 -1.01823
upperneck 40.7527 5.40715 -2.03605
head 17.9476 2.06707 0.401899
rclavicle -1.43125e-014 -7.95139e-015
rhumerus 2.19864 24.3665 -90.9772
rradius 81.01
rwrist -28.4111
rhand -43.1321 13.1068
rfingers 7.12502
rthumb -15.9855 -16.2537
lclavicle -1.43125e-014 -7.95139e-015
lhumerus 28.5397 -34.4571 64.6481
lradius 32.5393
lwrist -12.7733
lhand -39.3873 83.9284
lfingers 7.12502
lthumb -12.3771 -473.542
rfemur -24.2181 1.10201 23.3222
rtibia 7.92494
rfoot -4.86304 1.70774
rtoes -12.721
lfemur -33.3428 -2.58851 -4.42026
ltibia 31.4655
lfoot -18.8704 8.65876
ltoes -13.3349
1120
root -10.6704 17.6428 -5.84897 -374.289 75.9333 -393.251
lowerback 19.0358 -0.224328 -2.04479
upperback 8.21286 -0.273225 -2.97992
thorax -1.81787 0.06645 -1.94626
lowerneck -16.2628 1.40176 -0.677056
upperneck 40.938 5.29164 -2.22707
head 18.0766 2.05104 0.233685
rclavicle 6.36111e-015 1.27222e-014
rhumerus 2.15744 23.548 -91.1372
rradius 81.9884
rwrist -29.1096
rhand -40.718 10.5175
rfingers 7.12502
rthumb -13.6599 -19.0143
lclavicle 6.36111e-015 1.27222e-014
lhumerus 29.0175 -35.2157 64.2289
lradius 32.3097
lwrist -11.961
lhand -39.336 84.1809
lfingers 7.12502
lthumb -12.3277 -473.797
rfemur -24.5038 1.44826 23.208
rtibia 8.32348
rfoot -4.95182 1.74173
rtoes -12.5341
lfemur -33.2435 -2.12603 -4.60674
ltibia 31.4816
lfoot -18.9019 8.65462
ltoes -13.9221
1121
root -10.6724 17.643 -5.84028 -373.48 75.4294 -392.521
lowerback 18.89 0.0885268 -2.2594
upperback 8.064 0.080237 -3.06616
thorax -1.8938 0.233151 -1.9863
lowerneck -16.2643 1.36261 -0.410453
upperneck 41.2077 5.18027 -2.19938
head 18.2415 2.05358 0.180515
rclavicle -5.24792e-014 -1.59028e-015
rhumerus 1.85096 23.4599 -91.0305
rradius 81.7973
rwrist -28.2737
rhand -40.0673 9.42793
rfingers 7.12502
rthumb -13.0327 -20.1449
lclavicle -5.24792e-014 -1.59028e-015
lhumerus 29.4243 -35.9416 63.7556
lradius 31.9267
lwrist -11.2474
lhand -39.3041 84.5354
lfingers 7.12502
lthumb -12.2969 -474.154
rfemur -24.883 1.99834 23.2267
rtibia 8.77114
rfoot -5.05468 1.77938
rtoes -12.1453
lfemur -33.1096 -1.42008 -4.67018
ltibia 31.4174
lfoot -18.9389 8.633
ltoes -14.7108
1122
root -10.6657 17.6452 -5.8364 -372.884 75.3872 -391.97
lowerback 18.7242 0.150076 -2.54739
upperback 7.96298 0.104412 -3.17975
thorax -1.91438 0.238859 -1.94707
lowerneck -16.2302 1.36276 -0.221233
upperneck 41.5565 5.08168 -1.97706
head 18.4337 2.07437 0.234326
rclavicle 1.59028e-014 2.38542e-014
rhumerus 1.27573 23.5999 -90.8611
rradius 81.3599
rwrist -27.837
rhand -41.1413 8.39022
rfingers 7.12502
rthumb -14.0678 -21.1136
lclavicle 1.59028e-014 2.38542e-014
lhumerus 29.4683 -36.2523 63.59
lradius 31.6047
lwrist -10.9908
lhand -39.5039 84.7261
lfingers 7.12502
lthumb -12.4895 -474.333
rfemur -24.9909 2.06147 23.1208
rtibia 8.89555
rfoot -5.11898 1.82996
rtoes -12.0097
lfemur -33.0774 -1.16916 -4.86391
ltibia 31.3358
lfoot -18.9372 8.61437
ltoes -15.2891
1123
root -10.6424 17.65 -5.83517 -374.093 76.3817 -392.971
lowerback 18.7089 -0.251752 -2.47487
upperback 8.09358 -0.38509 -3.25946
thorax -1.77556 0.00582064 -1.97509
lowerneck -16.1463 1.35017 -0.04968
upperneck 41.7347 4.94987 -1.79255
head 18.5115 2.07478 0.264339
rclavicle 0 1.27222e-014
rhumerus -0.563909 23.7597 -90.7653
rradius 82.7499
rwrist -28.4523
rhand -41.9158 9.71697
rfingers 7.12502
rthumb -14.814 -19.7335
lclavicle 0 1.27222e-014
lhumerus 29.206 -36.0263 63.9028
lradius 31.4476
lwrist -11.4207
lhand -39.8312 84.5131
lfingers 7.12502
lthumb -12.8051 -474.1
rfemur -24.5041 1.0096 23.1451
rtibia 8.85514
rfoot -5.38375 1.82758
rtoes -11.8513
lfemur -33.0712 -1.93864 -5.01425
ltibia 31.2051
lfoot -18.8442 8.41466
ltoes -15.2071
1124
root -10.6152 17.6504 -5.80534 -377.163 76.9083 -395.773
lowerback 18.5524 -0.433518 -2.30458
upperback 8.40046 -0.547791 -3.13609
thorax -1.37083 -0.0668908 -1.90783
lowerneck -16.15 1.29309 0.0787059
upperneck 41.6684 4.78441 -1.76051
head 18.4707 2.0335 0.222449
rclavicle 1.43125e-014 -3.02153e-014
rhumerus -2.69043 23.4943 -90.6095
rradius 85.8055
rwrist -30.2187
rhand -40.9767 8.15173
rfingers 7.12502
rthumb -13.9091 -21.3631
lclavicle 1.43125e-014 -3.02153e-014
lhumerus 28.9884 -35.5278 64.5343
lradius 31.4022
lwrist -12.412
lhand -39.9298 84.3618
lfingers 7.12502
lthumb -12.9001 -473.943
rfemur -23.8262 0.347255 23.7636
rtibia 8.71578
rfoot -5.62083 1.80315
rtoes -11.5801
lfemur -32.8221 -2.37254 -4.54724
ltibia 31.091
lfoot -18.8315 8.08572
ltoes -14.8384
1125
root -10.5913 17.656 -5.80707 -378.861 77.4472 -397.429
lowerback 18.3124 -0.619995 -2.06218
upperback 8.64433 -0.713876 -3.14569
thorax -0.993533 -0.137398 -2.02354
lowerneck -16.2114 1.23093 0.0847355
upperneck 41.5756 4.64695 -1.71518
head 18.4263 1.98493 0.215292
rclavicle -4.77083e-015 -9.54166e-015
rhumerus -5.3234 23.1718 -90.4287
rradius 89.6108
rwrist -31.5181
rhand -40.4192 6.89646
rfingers 7.12502
rthumb -13.3719 -22.6544
lclavicle -4.77083e-015 -9.54166e-015
lhumerus 29.0113 -35.1392 64.9936
lradius 31.4213
lwrist -13.2195
lhand -39.9464 84.3745
lfingers 7.12502
lthumb -12.9162 -473.955
rfemur -23.4445 -0.325206 23.9054
rtibia 8.44682
rfoot -5.69941 1.82346
rtoes -11.6089
lfemur -32.8367 -2.91265 -4.44378
ltibia 31.0077
lfoot -18.8338 7.94334
ltoes -14.3652
1126
root -10.5673 17.6578 -5.80277 -380.546 77.8046 -399.164
lowerback 18.041 -0.76567 -1.87713
upperback 8.78586 -0.849733 -3.14743
thorax -0.709034 -0.197203 -2.10555
lowerneck -16.1788 1.23554 0.0948703
upperneck 41.5565 4.6348 -1.67751
head 18.4038 1.98716 0.227826
rclavicle -6.36111e-015 -7.95139e-015
rhumerus -8.29855 23.067 -90.3844
rradius 93.3965
rwrist -32.0069
rhand -39.9324 5.49342
rfingers 7.12502
rthumb -12.9027 -24.0877
lclavicle -6.36111e-015 -7.95139e-015
lhumerus 29.1401 -35.0317 65.0471
lradius 31.3961
lwrist -13.5064
lhand -39.9786 84.2993
lfingers 7.12502
lthumb -12.9472 -473.878
rfemur -23.1016 -0.825543 24.0978
rtibia 7.99825
rfoot -5.6225 1.90644
rtoes -11.2596
lfemur -32.9573 -3.36539 -4.22142
ltibia 31.0229
lfoot -18.9356 7.90922
ltoes -13.7525
1127
root -10.5452 17.6565 -5.79436 -382.329 78.083 -400.966
lowerback 17.8698 -0.97608 -1.7683
upperback 8.86995 -1.09189 -3.15017
thorax -0.539367 -0.312645 -2.12725
lowerneck -16.1815 1.37216 0.19285
upperneck 41.579 4.87257 -1.80249
head 18.4319 2.07662 0.197984
rclavicle -1.11319e-014 2.22639e-014
rhumerus -11.2695 23.4933 -90.4962
rradius 96.7516
rwrist -32.1399
rhand -39.5051 4.60613
rfingers 7.12502
rthumb -12.4907 -25.0006
lclavicle -1.11319e-014 2.22639e-014
lhumerus 29.1774 -34.8372 64.9658
lradius 31.1885
lwrist -13.6067
lhand -39.9241 84.2348
lfingers 7.12502
lthumb -12.8946 -473.816
rfemur -22.8424 -1.25389 24.3288
rtibia 7.74536
rfoot -5.63971 1.95932
rtoes -10.8767
lfemur -33.0444 -3.74566 -3.9645
ltibia 31.0426
lfoot -19.043 7.89184
ltoes -13.2172
1128
root -10.529 17.6548 -5.78748 -383.945 78.386 -402.557
lowerback 17.8047 -1.2772 -1.73984
upperback 8.93531 -1.46897 -3.17245
thorax -0.446817 -0.496584 -2.10064
lowerneck -16.2599 1.57767 0.232976
upperneck 41.6504 5.24055 -1.92276
head 18.5123 2.20475 0.208017
rclavicle -3.02153e-014 -1.11319e-014
rhumerus -14.0205 24.359 -90.7197
rradius 99.6717
rwrist -32.0866
rhand -39.1365 4.30883
rfingers 7.12502
rthumb -12.1352 -25.3192
lclavicle -3.02153e-014 -1.11319e-014
lhumerus 29.0827 -34.4269 64.8922
lradius 30.8882
lwrist -13.6807
lhand -39.9319 84.3445
lfingers 7.12502
lthumb -12.9021 -473.926
rfemur -22.6278 -1.69735 24.483
rtibia 7.58755
rfoot -5.68524 1.96028
rtoes -10.8975
lfemur -33.1282 -4.10847 -3.79186
ltibia 31.0868
lfoot -19.1267 7.84287
ltoes -12.8624
1129
root -10.5167 17.6532 -5.78247 -385.157 78.6651 -403.679
lowerback 17.8049 -1.54383 -1.81891
upperback 9.01316 -1.81687 -3.17392
thorax -0.369366 -0.669037 -1.99673
lowerneck -16.2986 1.75745 0.197593
upperneck 41.6621 5.59954 -2.07252
head 18.5458 2.31441 0.214827
rclavicle 1.59028e-015 2.54444e-014
rhumerus -16.3116 25.2193 -90.8895
rradius 102.14
rwrist -31.9089
rhand -38.7954 3.70118
rfingers 7.12502
rthumb -11.8064 -25.946
lclavicle 1.59028e-015 2.54444e-014
lhumerus 28.9329 -33.9813 64.9161
lradius 30.6814
lwrist -13.7867
lhand -39.93 84.4016
lfingers 7.12502
lthumb -12.9003 -473.983
rfemur -22.4259 -2.08697 24.5399
rtibia 7.53062
rfoot -5.73225 1.9546
rtoes -11.0879
lfemur -33.1424 -4.42856 -3.72488
ltibia 31.1499
lfoot -19.2185 7.78211
ltoes -12.5393
